# xmcd
#
# Track frame offsets:
#	150
#	15892
#	36090
#	53208
#	69811
#	85706
#	104503
#	120681
#	138934
#	152407
#	167431
#
# Disc length: 2426 seconds
# Revision: 0
# Processed by: cddbd v1.5.2PL0 Copyright (c) Steve Scherf et al.
# Submitted via: dBpowerAMP V12.0
#
DISCID=7709780b
DTITLE=Josh Turner - Icon
DYEAR=2011
DGENRE=Country*
TTITLE0=Firecracker
TTITLE1=As Fast As I Could
TTITLE2=Would You Go With Me
TTITLE3=Backwoods Boy
TTITLE4=Your Man
TTITLE5=Long Black Train
TTITLE6=Everything Is Fine
TTITLE7=She'll Go On You
TTITLE8=Me And God
TTITLE9=All Over Me
TTITLE10=Why Don't We Just Dance
EXTD=
EXTT0=
EXTT1=
EXTT2=
EXTT3=
EXTT4=
EXTT5=
EXTT6=
EXTT7=
EXTT8=
EXTT9=
EXTT10=
PLAYORDER=
